<?xml version="1.0" encoding="UTF-8"?>
<svg id="Layer_2" data-name="Layer 2" xmlns="http://www.w3.org/2000/svg" viewBox="0 0 2404 2704">
    <defs>
        <style>
            .cls-1 {
            stroke-width: 6px;
            }

            .cls-1, .cls-2 {
            stroke-miterlimit: 10;
            }

            .cls-1, .cls-2, .cls-3 {
            fill: none;
            stroke: rgb(102, 79, 76);
            }

            .cls-4 {
            fill: rgb(183, 163, 168);
            }

            .cls-2, .cls-3 {
            stroke-width: 6px;
            }

            .cls-3 {
            stroke-linejoin: bevel;
            }
        </style>
    </defs>
    <g id="Layer_1-2" data-name="Layer 1">
        <g>
            <g>
                <g>
                    <line class="cls-2" x1="2" y1="302" x2="2402" y2="302"/>
                    <line class="cls-2" x1="2" y1="602" x2="2402" y2="602"/>
                    <line class="cls-2" x1="2" y1="902" x2="2402" y2="902"/>
                    <line class="cls-2" x1="2" y1="1202" x2="2402" y2="1202"/>
                    <line class="cls-2" x1="2" y1="1502" x2="2402" y2="1502"/>
                    <line class="cls-2" x1="2" y1="1802" x2="2402" y2="1802"/>
                    <line class="cls-2" x1="2" y1="2102" x2="2402" y2="2102"/>
                    <line class="cls-2" x1="2" y1="2402" x2="2402" y2="2402"/>
                    <rect class="cls-2" x="2" y="2" width="2400" height="2700"/>
                    <line class="cls-2" x1="302" y1="1502" x2="302" y2="2702"/>
                    <line class="cls-2" x1="302" y1="2" x2="302" y2="1202"/>
                    <line class="cls-2" x1="602" y1="1502" x2="602" y2="2702"/>
                    <line class="cls-2" x1="602" y1="2" x2="602" y2="1202"/>
                    <polyline class="cls-3" points="902 1502 902 2702 1502 2102"/>
                    <polyline class="cls-3" points="902 1202 902 2 1502 602"/>
                    <line class="cls-2" x1="1202" y1="1502" x2="1202" y2="2702"/>
                    <line class="cls-2" x1="1202" y1="1202" x2="1202" y2="2"/>
                    <polyline class="cls-3" points="902 2102 1502 2702 1502 1502"/>
                    <polyline class="cls-3" points="1502 1202 1502 2 902 602"/>
                    <line class="cls-2" x1="1802" y1="1502" x2="1802" y2="2702"/>
                    <line class="cls-2" x1="1802" y1="1202" x2="1802" y2="2"/>
                    <line class="cls-2" x1="2102" y1="1502" x2="2102" y2="2702"/>
                    <line class="cls-2" x1="2102" y1="2" x2="2102" y2="1202"/>
                </g>
                <g>
                    <g>
                        <path class="cls-4" d="M1938.27,1345.85l12.45-20.16h6.16l-15.52,24.67-13.24,21.49h-6.16l16.32-26Zm.19,5.24l-.95-1.52-15.17-23.87h6.16l12.06,19.37,.95,1.49,16.06,25.3h-6.16l-12.95-20.76Z"/>
                        <path class="cls-4" d="M1969.92,1371.85h-5.52v-46.16h5.52v46.16Z"/>
                        <path class="cls-4" d="M1994.4,1325.69h5.52l17.02,46.16h-6.03l-13.75-39.3-13.75,39.3h-6.03l17.02-46.16Zm-9.17,30.29h24.29v5.21h-24.29v-5.21Z"/>
                        <path class="cls-4" d="M2023.92,1325.69h5.24l24.7,38.64-1.33-.22v-38.41h5.49v46.13h-5.3l-24.92-38.54,1.62,.51v38.03h-5.49v-46.13Z"/>
                        <path class="cls-4" d="M2101,1347.63v7.43c0,3.64-.63,6.76-1.89,9.35-1.26,2.59-3.1,4.56-5.52,5.9-2.42,1.34-5.34,2.02-8.75,2.02s-6.4-.63-8.84-1.9c-2.44-1.27-4.31-3.12-5.59-5.56-1.28-2.43-1.92-5.36-1.92-8.79v-13.62c0-3.64,.63-6.75,1.89-9.33,1.26-2.58,3.1-4.54,5.52-5.89,2.42-1.34,5.34-2.02,8.75-2.02,2.81,0,5.32,.53,7.52,1.6,2.2,1.07,4.02,2.63,5.45,4.68,1.43,2.05,2.43,4.53,3,7.43h-5.97c-.47-1.84-1.17-3.39-2.13-4.64-.95-1.25-2.1-2.2-3.43-2.84-1.33-.65-2.81-.97-4.44-.97-2.24,0-4.15,.47-5.73,1.41-1.58,.94-2.78,2.3-3.6,4.08-.83,1.78-1.24,3.94-1.24,6.48v13.62c0,2.35,.42,4.34,1.25,5.97,.84,1.63,2.06,2.87,3.67,3.73,1.61,.86,3.56,1.29,5.84,1.29s4.14-.44,5.68-1.33c1.54-.89,2.72-2.22,3.54-3.98,.81-1.77,1.22-3.96,1.22-6.59v-2.32h-10.29v-5.21h16Z"/>
                        <path class="cls-4" d="M2118.1,1370.28c-2.44-1.37-4.32-3.33-5.62-5.89-1.3-2.56-1.95-5.59-1.95-9.08v-13.08c0-3.49,.65-6.52,1.95-9.08,1.3-2.56,3.17-4.52,5.62-5.89,2.45-1.36,5.33-2.05,8.65-2.05s6.21,.68,8.65,2.05c2.45,1.37,4.32,3.33,5.62,5.89,1.3,2.56,1.95,5.59,1.95,9.08v13.08c0,3.49-.65,6.52-1.95,9.08-1.3,2.56-3.17,4.52-5.62,5.89-2.44,1.36-5.33,2.05-8.65,2.05s-6.21-.68-8.65-2.05Zm14.32-4.64c1.6-.92,2.83-2.24,3.68-3.97,.86-1.72,1.29-3.77,1.29-6.14v-13.52c0-2.37-.43-4.42-1.29-6.14-.86-1.72-2.08-3.05-3.68-3.97-1.6-.92-3.49-1.38-5.67-1.38s-4.07,.46-5.67,1.38c-1.6,.92-2.83,2.24-3.68,3.97-.86,1.73-1.29,3.77-1.29,6.14v13.52c0,2.37,.43,4.42,1.29,6.14,.86,1.73,2.08,3.05,3.68,3.97,1.6,.92,3.49,1.38,5.67,1.38s4.07-.46,5.67-1.38Zm-5.76-6.59l2.95-3.71,17.21,13.52-2.95,3.75-17.21-13.56Z"/>
                        <path class="cls-4" d="M2160.21,1371.85h-5.52v-46.16h5.52v46.16Z"/>
                        <path class="cls-4" d="M2171,1366.33h5.52v5.52h-5.52v-5.52Z"/>
                        <path class="cls-4" d="M2191.62,1370.2c-2.42-1.42-4.3-3.43-5.63-6.03-1.33-2.6-2-5.62-2-9.05v-12.67c0-3.43,.67-6.44,2-9.05,1.33-2.6,3.21-4.62,5.63-6.05,2.42-1.43,5.23-2.14,8.43-2.14,2.65,0,5.08,.55,7.3,1.65,2.22,1.1,4.08,2.67,5.57,4.7,1.49,2.03,2.5,4.38,3.03,7.05h-5.59c-.47-1.59-1.22-3-2.27-4.24s-2.28-2.2-3.68-2.87c-1.41-.68-2.86-1.02-4.37-1.02-2.09,0-3.93,.5-5.51,1.49-1.58,1-2.8,2.39-3.67,4.19-.87,1.8-1.3,3.89-1.3,6.29v12.67c0,2.37,.43,4.46,1.3,6.27,.87,1.81,2.09,3.21,3.67,4.19,1.58,.98,3.41,1.48,5.51,1.48,1.52,0,2.98-.32,4.38-.95,1.4-.63,2.62-1.57,3.67-2.79s1.8-2.69,2.27-4.38h5.59c-.53,2.67-1.54,5.02-3.05,7.05s-3.37,3.6-5.59,4.7c-2.22,1.1-4.65,1.65-7.27,1.65-3.2,0-6-.71-8.43-2.13Z"/>
                        <path class="cls-4" d="M2231.78,1370.28c-2.44-1.37-4.32-3.33-5.62-5.89-1.3-2.56-1.95-5.59-1.95-9.08v-13.08c0-3.49,.65-6.52,1.95-9.08,1.3-2.56,3.17-4.52,5.62-5.89,2.45-1.36,5.33-2.05,8.65-2.05s6.21,.68,8.65,2.05c2.45,1.37,4.32,3.33,5.62,5.89,1.3,2.56,1.95,5.59,1.95,9.08v13.08c0,3.49-.65,6.52-1.95,9.08-1.3,2.56-3.17,4.52-5.62,5.89-2.44,1.36-5.33,2.05-8.65,2.05s-6.21-.68-8.65-2.05Zm14.32-4.64c1.6-.92,2.83-2.24,3.68-3.97,.86-1.72,1.29-3.77,1.29-6.14v-13.52c0-2.37-.43-4.42-1.29-6.14-.86-1.72-2.08-3.05-3.68-3.97-1.6-.92-3.49-1.38-5.67-1.38s-4.07,.46-5.67,1.38c-1.6,.92-2.83,2.24-3.68,3.97-.86,1.73-1.29,3.77-1.29,6.14v13.52c0,2.37,.43,4.42,1.29,6.14,.86,1.73,2.08,3.05,3.68,3.97,1.6,.92,3.49,1.38,5.67,1.38s4.07-.46,5.67-1.38Z"/>
                        <path class="cls-4" d="M2300.94,1325.69h5.43v46.16h-5.43v-37.11l.38,2.03-12.63,28.67h-3.87l-12.64-28.03,.38-2.67v37.11h-5.43v-46.16h5.43l14.19,31.91,14.19-31.91Z"/>
                    </g>
                    <g>
                        <path class="cls-4" d="M96.49,1333.93c2.88,.17,5.75,.25,8.63,.25,0-6.6-.09-11-.25-13.21h5.33c-.17,2.37-.25,6.77-.25,13.21,3.56,0,6.43-.08,8.63-.25v4.32c-2.03-.17-4.91-.25-8.63-.25v9.65c1.35-.85,2.54-1.86,3.56-3.05,2.2,2.88,4.15,5.76,5.84,8.63-1.19,.51-2.54,1.44-4.06,2.79-1.19-2.37-2.96-5.25-5.33-8.64v19.05c0,2.71,.08,6.26,.25,10.67h-5.33c.17-4.4,.25-7.87,.25-10.41v-16.51c-.68,2.03-1.61,4.28-2.79,6.73-1.19,2.46-2.54,5.12-4.06,8-1.19-2.37-2.37-4.06-3.56-5.08,1.02-1.35,2.2-3.13,3.56-5.33,1.35-2.2,2.54-4.83,3.56-7.87,1.02-3.05,1.94-5.92,2.79-8.64-3.22,0-5.93,.09-8.13,.25v-4.32Zm25.65-9.14h28.44c-.17,3.73-.25,7.62-.25,11.68v27.68c0,4.06,.08,8.21,.25,12.44h-5.08v-4.57h-18.29v5.08h-5.08c.17-4.91,.25-9.06,.25-12.44v-28.44c0-4.06-.09-7.87-.25-11.43Zm5.08,3.81v10.67h18.29v-10.67h-18.29Zm0,14.48v9.9h18.29v-9.9h-18.29Zm0,13.71v11.43h18.29v-11.43h-18.29Z"/>
                        <path class="cls-4" d="M167.09,1378.37c-1.02-1.52-2.2-2.88-3.56-4.06,4.06-1.02,7.4-2.37,10.03-4.06,2.62-1.69,4.19-4.15,4.7-7.37h-7.11c-3.22,0-6.27,.09-9.14,.25v-4.57c2.71,.17,5.75,.25,9.14,.25h7.62c0-1.69-.09-3.56-.25-5.59l5.33,.51c-.17,.68-.25,2.37-.25,5.08h13.21c0-1.52-.09-3.47-.25-5.84h5.33c-.17,2.37-.25,4.32-.25,5.84h7.37c3.05,0,5.84-.08,8.38-.25v4.57c-2.54-.17-5.33-.25-8.38-.25h-7.37v6.1c0,2.88,.08,5.84,.25,8.89h-5.33c.17-3.22,.25-6.1,.25-8.63v-6.35h-13.71c-.51,4.4-2.2,7.66-5.08,9.78-2.88,2.12-6.52,4.02-10.92,5.71Zm.51-31.75c-1.19-1.02-2.54-2.03-4.06-3.05,2.88-2.54,5.59-5.75,8.13-9.65,1.18,1.02,2.62,1.95,4.32,2.79-1.02,1.02-2.12,2.33-3.3,3.94-1.19,1.61-2.88,3.6-5.08,5.97Zm7.11,8.13c-.85-1.18-2.46-2.37-4.83-3.56,3.21-1.69,5.63-3.3,7.24-4.83,1.61-1.52,2.75-3.21,3.43-5.08,.67-1.86,1.1-5.67,1.27-11.43h-7.62c-3.22,0-6.44,.09-9.65,.25v-4.57c3.05,.17,6.18,.25,9.4,.25h13.97c-.34-2.54-.85-4.57-1.52-6.1,1.86-.17,3.64-.42,5.33-.76,.51,2.37,.93,4.66,1.27,6.86h14.48c2.71,0,5.42-.08,8.13-.25v4.57c-2.54-.17-5.25-.25-8.13-.25h-8.63v14.98c0,2.54-.72,4.06-2.16,4.57-1.44,.51-3.6,1.02-6.48,1.52-.17-1.02-.85-2.71-2.03-5.08,3.21,0,5.04-.25,5.46-.76,.42-.51,.63-1.52,.63-3.05v-12.19h-7.87c0,5.59-.34,9.61-1.02,12.06-.68,2.46-1.86,4.7-3.56,6.73-1.69,2.03-4.06,4.06-7.11,6.1Zm39.37-10.41c-.85,.51-2.2,1.44-4.06,2.79-2.2-3.38-4.66-6.77-7.37-10.16,1.35-.85,2.54-1.69,3.56-2.54,2.71,3.22,5.33,6.52,7.87,9.91Z"/>
                        <path class="cls-4" d="M253.19,1347.39c-.68,.51-1.19,1.02-1.52,1.52,1.52,1.52,2.75,2.84,3.68,3.94,.93,1.1,2.16,2.5,3.68,4.19,2.03-1.02,3.89-2.12,5.59-3.3,1.69-1.18,3.56-2.96,5.59-5.33,1.35,1.52,2.96,2.79,4.83,3.81-1.36,.51-3.9,2.2-7.62,5.08,2.71,5.08,5.16,8.3,7.37,9.65,2.2,1.36,5.33,2.46,9.4,3.3-1.69,1.02-2.96,2.79-3.81,5.33-5.42-2.03-9.31-4.61-11.68-7.75-2.37-3.13-4.06-5.97-5.08-8.51-.85,.34-1.87,.93-3.05,1.78,.85,4.74,1.02,8.3,.51,10.67s-1.65,4.02-3.43,4.95c-1.78,.93-4.53,1.65-8.25,2.16-.34-2.03-.93-3.9-1.78-5.59,4.4,.17,7.07-.47,8-1.9,.93-1.44,1.23-3.85,.89-7.24-3.56,2.88-6.56,5-9.02,6.35-2.46,1.36-4.91,2.54-7.37,3.56-2.46,1.02-5.46,2.2-9.02,3.56-.68-1.52-1.86-3.05-3.56-4.57,3.21-.68,6.1-1.44,8.64-2.29,2.54-.85,5.63-2.24,9.27-4.19,3.64-1.94,6.81-4.27,9.52-6.98-.85-1.18-1.52-2.2-2.03-3.05-1.87,1.87-4.19,3.6-6.98,5.21-2.79,1.61-5.38,2.84-7.75,3.68-2.37,.85-4.91,1.78-7.62,2.79-.51-1.69-1.61-3.21-3.3-4.57,4.74-.85,8.38-1.73,10.92-2.67,2.54-.93,4.74-1.99,6.6-3.17,1.86-1.18,3.72-2.62,5.59-4.32-.51-.67-1.1-1.27-1.78-1.78-2.37,1.36-4.74,2.63-7.11,3.81-2.37,1.19-5.59,2.29-9.65,3.3-.34-1.35-1.52-2.88-3.56-4.57,3.89-.67,7.24-1.48,10.03-2.41,2.79-.93,5.63-2.41,8.51-4.44h-13.46c.17-2.54,.25-6.01,.25-10.41-1.02,1.02-2.12,1.95-3.3,2.79-1.02-1.35-2.46-2.54-4.32-3.56,3.56-1.86,6.94-4.32,10.16-7.36,3.21-3.05,5.67-6.18,7.37-9.4,1.69,1.02,3.89,1.78,6.6,2.29-1.52,1.19-2.88,2.46-4.06,3.81h23.37c-3.56,4.23-5.84,7.11-6.86,8.63h14.22c-.17,1.69-.25,3.94-.25,6.73s.08,4.95,.25,6.48h-23.62Zm-10.41-18.29c-2.54,2.37-4.49,4.06-5.84,5.08h20.06c1.02-1.69,2.2-3.38,3.56-5.08h-17.78Zm-4.32,8.63v6.1h11.68c.85-1.18,1.86-3.21,3.05-6.1h-14.73Zm19.56,0c-.68,1.87-1.61,3.9-2.79,6.1h16.51v-6.1h-13.71Z"/>
                        <path class="cls-4" d="M304.24,1344.85c1.18-.51,2.29-1.27,3.3-2.29,2.37,3.56,4.15,6.35,5.33,8.38-1.36,.68-2.71,1.61-4.06,2.79-.68-2.37-2.2-5.08-4.57-8.13v24.38c0,2.54,.08,5.42,.25,8.63h-5.08c.17-2.71,.25-5.59,.25-8.63v-23.11c-1.87,5.59-3.98,10.58-6.35,14.98-1.19-1.52-2.54-2.79-4.06-3.81,1.52-1.69,3.21-4.36,5.08-8,1.86-3.64,3.3-8.08,4.32-13.33-2.2,0-4.66,.09-7.37,.25v-4.32c2.71,.17,5.5,.25,8.38,.25,0-6.6-.09-11.17-.25-13.71h5.33c-.51,2.37-.68,6.94-.51,13.71,1.86,0,3.72-.08,5.59-.25v4.32c-1.87-.17-3.73-.25-5.59-.25v8.13Zm8.89-17.27c2.03,.17,3.89,.25,5.59,.25,0-2.88-.09-5.59-.25-8.13h5.33c-.34,2.37-.51,5.08-.51,8.13h13.46c0-3.21-.09-6.01-.25-8.38h5.08c-.34,2.03-.42,4.83-.25,8.38,1.69,0,3.64-.08,5.84-.25v4.06c-2.03-.17-3.98-.25-5.84-.25v28.44c2.2,0,4.74-.08,7.62-.25v4.06c-2.71-.17-5.08-.25-7.11-.25h-23.62c-3.05,0-5.84,.17-8.38,.51v-4.32c2.2,.17,5.16,.25,8.89,.25v-28.44c-2.2,0-4.06,.09-5.59,.25v-4.06Zm2.03,51.05c-1.36-1.36-2.71-2.46-4.06-3.3,1.86-.85,3.72-2.16,5.59-3.94,1.86-1.78,3.56-3.77,5.08-5.97,1.35,1.02,2.96,2.12,4.83,3.3-1.52,.68-3.22,1.99-5.08,3.94-1.87,1.94-3.98,3.94-6.35,5.97Zm8.13-47.24v7.37h13.46v-7.37h-13.46Zm0,10.92v6.86h13.46v-6.86h-13.46Zm0,10.41v7.11h13.46v-7.11h-13.46Zm10.41,16.76c1.35-1.35,2.37-2.62,3.05-3.81,3.56,2.03,7.53,4.91,11.94,8.63-1.52,1.18-2.71,2.45-3.56,3.81-4.91-4.4-8.72-7.28-11.43-8.63Z"/>
                    </g>
                </g>
            </g>
            <g>
                <g>
                    <polyline class="cls-1" points="247.54 576.38 276.1 576.38 276.1 547.83"/>
                    <polyline class="cls-1" points="247.54 627.56 276.1 627.56 276.1 656.11"/>
                    <polyline class="cls-1" points="327.9 656.11 327.9 627.56 356.46 627.56"/>
                    <polyline class="cls-1" points="356.46 575.75 327.9 575.75 327.9 547.2"/>
                </g>
                <g>
                    <polyline class="cls-1" points="2047.54 576.38 2076.1 576.38 2076.1 547.83"/>
                    <polyline class="cls-1" points="2047.54 627.56 2076.1 627.56 2076.1 656.11"/>
                    <polyline class="cls-1" points="2127.9 656.11 2127.9 627.56 2156.46 627.56"/>
                    <polyline class="cls-1" points="2156.46 575.75 2127.9 575.75 2127.9 547.2"/>
                </g>
                <g>
                    <polyline class="cls-1" points="2347.54 876.38 2376.1 876.38 2376.1 847.83"/>
                    <polyline class="cls-1" points="2347.54 927.56 2376.1 927.56 2376.1 956.11"/>
                </g>
                <g>
                    <polyline class="cls-1" points="1747.54 876.38 1776.1 876.38 1776.1 847.83"/>
                    <polyline class="cls-1" points="1747.54 927.56 1776.1 927.56 1776.1 956.11"/>
                    <polyline class="cls-1" points="1827.9 956.11 1827.9 927.56 1856.46 927.56"/>
                    <polyline class="cls-1" points="1856.46 875.75 1827.9 875.75 1827.9 847.2"/>
                </g>
                <g>
                    <polyline class="cls-1" points="1147.54 876.38 1176.1 876.38 1176.1 847.83"/>
                    <polyline class="cls-1" points="1147.54 927.56 1176.1 927.56 1176.1 956.11"/>
                    <polyline class="cls-1" points="1227.9 956.11 1227.9 927.56 1256.46 927.56"/>
                    <polyline class="cls-1" points="1256.46 875.75 1227.9 875.75 1227.9 847.2"/>
                </g>
                <g>
                    <polyline class="cls-1" points="547.54 876.38 576.1 876.38 576.1 847.83"/>
                    <polyline class="cls-1" points="547.54 927.56 576.1 927.56 576.1 956.11"/>
                    <polyline class="cls-1" points="627.9 956.11 627.9 927.56 656.46 927.56"/>
                    <polyline class="cls-1" points="656.46 875.75 627.9 875.75 627.9 847.2"/>
                </g>
                <g>
                    <polyline class="cls-1" points="27.9 956.11 27.9 927.56 56.46 927.56"/>
                    <polyline class="cls-1" points="56.46 875.75 27.9 875.75 27.9 847.2"/>
                </g>
                <g>
                    <polyline class="cls-1" points="2156.46 2128.31 2127.9 2128.31 2127.9 2156.86"/>
                    <polyline class="cls-1" points="2156.46 2077.12 2127.9 2077.12 2127.9 2048.57"/>
                    <polyline class="cls-1" points="2076.1 2048.57 2076.1 2077.12 2047.54 2077.12"/>
                    <polyline class="cls-1" points="2047.54 2128.93 2076.1 2128.93 2076.1 2157.48"/>
                </g>
                <g>
                    <polyline class="cls-1" points="356.46 2128.31 327.9 2128.31 327.9 2156.86"/>
                    <polyline class="cls-1" points="356.46 2077.12 327.9 2077.12 327.9 2048.57"/>
                    <polyline class="cls-1" points="276.1 2048.57 276.1 2077.12 247.54 2077.12"/>
                    <polyline class="cls-1" points="247.54 2128.93 276.1 2128.93 276.1 2157.48"/>
                </g>
                <g>
                    <polyline class="cls-1" points="56.46 1828.31 27.9 1828.31 27.9 1856.86"/>
                    <polyline class="cls-1" points="56.46 1777.12 27.9 1777.12 27.9 1748.57"/>
                </g>
                <g>
                    <polyline class="cls-1" points="656.46 1828.31 627.9 1828.31 627.9 1856.86"/>
                    <polyline class="cls-1" points="656.46 1777.12 627.9 1777.12 627.9 1748.57"/>
                    <polyline class="cls-1" points="576.1 1748.57 576.1 1777.12 547.54 1777.12"/>
                    <polyline class="cls-1" points="547.54 1828.93 576.1 1828.93 576.1 1857.48"/>
                </g>
                <g>
                    <polyline class="cls-1" points="1256.46 1828.31 1227.9 1828.31 1227.9 1856.86"/>
                    <polyline class="cls-1" points="1256.46 1777.12 1227.9 1777.12 1227.9 1748.57"/>
                    <polyline class="cls-1" points="1176.1 1748.57 1176.1 1777.12 1147.54 1777.12"/>
                    <polyline class="cls-1" points="1147.54 1828.93 1176.1 1828.93 1176.1 1857.48"/>
                </g>
                <g>
                    <polyline class="cls-1" points="1856.46 1828.31 1827.9 1828.31 1827.9 1856.86"/>
                    <polyline class="cls-1" points="1856.46 1777.12 1827.9 1777.12 1827.9 1748.57"/>
                    <polyline class="cls-1" points="1776.1 1748.57 1776.1 1777.12 1747.54 1777.12"/>
                    <polyline class="cls-1" points="1747.54 1828.93 1776.1 1828.93 1776.1 1857.48"/>
                </g>
                <g>
                    <polyline class="cls-1" points="2376.1 1748.57 2376.1 1777.12 2347.54 1777.12"/>
                    <polyline class="cls-1" points="2347.54 1828.93 2376.1 1828.93 2376.1 1857.48"/>
                </g>
            </g>
        </g>
    </g>
</svg>