<svg width="45" height="45" viewBox="0 0 45 45" fill="none" xmlns="http://www.w3.org/2000/svg">
<rect width="45" height="45" rx="22.5" fill="#EADDFF"/>
<path fill-rule="evenodd" clip-rule="evenodd" d="M29.2503 18C29.2503 21.7279 26.2282 24.75 22.5003 24.75C18.7724 24.75 15.7503 21.7279 15.7503 18C15.7503 14.2721 18.7724 11.25 22.5003 11.25C26.2282 11.25 29.2503 14.2721 29.2503 18ZM27.0003 18C27.0003 20.4853 24.9856 22.5 22.5003 22.5C20.015 22.5 18.0003 20.4853 18.0003 18C18.0003 15.5147 20.015 13.5 22.5003 13.5C24.9856 13.5 27.0003 15.5147 27.0003 18Z" fill="#4F378A"/>
<path d="M22.5003 28.125C15.2166 28.125 9.01071 32.432 6.64673 38.466C7.22261 39.0379 7.82926 39.5788 8.46397 40.0861C10.2243 34.5462 15.7466 30.375 22.5003 30.375C29.254 30.375 34.7763 34.5462 36.5366 40.0861C37.1713 39.5788 37.7779 39.0379 38.3538 38.4661C35.9899 32.432 29.784 28.125 22.5003 28.125Z" fill="#4F378A"/>
</svg>
